<svg xmlns="http://www.w3.org/2000/svg" width="16" height="16" viewBox="0 0 16 16">
    <g fill="none" fill-rule="evenodd">
        <g>
            <g>
                <g>
                    <g>
                        <path d="M0 0H16V16H0z" transform="translate(-106 -105) translate(16 90) translate(90 15)"/>
                        <path fill="#3897FF" d="M8 4.5c.825 0 1.5-.675 1.5-1.5S8.825 1.5 8 1.5 6.5 2.175 6.5 3 7.175 4.5 8 4.5zm0 2c-.825 0-1.5.675-1.5 1.5S7.175 9.5 8 9.5 9.5 8.825 9.5 8 8.825 6.5 8 6.5zm0 5c-.825 0-1.5.675-1.5 1.5s.675 1.5 1.5 1.5 1.5-.675 1.5-1.5-.675-1.5-1.5-1.5z" transform="translate(-106 -105) translate(16 90) translate(90 15)"/>
                    </g>
                </g>
            </g>
        </g>
    </g>
</svg>
